<?xml version="1.0" encoding="utf-8"?>
<!-- Generator: Adobe Illustrator 17.0.1, SVG Export Plug-In . SVG Version: 6.00 Build 0)  -->
<!DOCTYPE svg PUBLIC "-//W3C//DTD SVG 1.1//EN" "http://www.w3.org/Graphics/SVG/1.1/DTD/svg11.dtd">
<svg version="1.1" id="Layer_1" xmlns="http://www.w3.org/2000/svg" xmlns:xlink="http://www.w3.org/1999/xlink" x="0px" y="0px"
	 width="226.77px" height="226.77px" viewBox="0 0 226.77 226.77" enable-background="new 0 0 226.77 226.77" xml:space="preserve">
<g>
	<g>
		<circle cx="113.64" cy="113.386" r="70.866"/>
		<circle fill="#FFFFFF" cx="113.64" cy="113.386" r="60.455"/>
		<path d="M93.408,73.446v-9.404h-5.884v10.882c-3.99,1.209-6.301,2.472-5.925,3.291c1.317-0.39,3.412-0.551,5.925-0.39v56.518
			c-6.113,11.782,2.633,29.838,2.633,29.838s-6.489-19.278,7.966-28.387c13.287-8.396,59.125-4.447,58.977-30.321
			C156.872,68.824,114.607,69.052,93.408,73.446z M112.323,108.993c-2.055,9.74-12.709,14.832-18.915,19.05V78.725
			C104.008,81.278,116.461,89.406,112.323,108.993z M140.442,93.819c0,0-0.36,3.343-2.179,6.326c0,0-0.042,2.476,0.084,2.856
			c0.127,0.381,0.487,1.248-0.339,1.545c-0.825,0.296-1.671,0.148-2.137,0l-0.381,0.91c0,0-0.063,2.095,0.085,2.581
			c0.148,0.487,0.339,0.91,0,1.206c-0.339,0.296-1.185,0.36-1.82,0.339c0,0-0.212,0.614-0.212,1.354c0,0.74,0.36,2.602,1.121,4.168
			c0.762,1.566,1.375,3.047,1.1,3.385c0,0-2.581-0.233-3.893-0.233s-3.893,0.233-3.893,0.233c-0.275-0.339,0.338-1.82,1.1-3.385
			c0.762-1.566,1.121-3.428,1.121-4.168c0-0.741-0.212-1.354-0.212-1.354c-0.635,0.021-1.481-0.042-1.82-0.339
			c-0.339-0.296-0.148-0.719,0-1.206c0.148-0.487,0.085-2.581,0.085-2.581l-0.381-0.91c-0.465,0.148-1.312,0.296-2.137,0
			c-0.825-0.296-0.465-1.164-0.339-1.545c0.127-0.381,0.085-2.856,0.085-2.856c-1.82-2.983-2.179-6.326-2.179-6.326
			c-2.2,0.444-3.068-0.402-3.068-0.804c0-0.402,0.578-1.126,0.86-2.664c0.281-1.53,0.791-4.932,0.791-4.932s0.846,2.073,3.851,2.073
			c2.983,0,4.803-3.639,6.136-3.639c1.333,0,3.152,3.639,6.136,3.639c3.004,0,3.851-2.073,3.851-2.073s0.51,3.402,0.791,4.932
			c0.282,1.538,0.86,2.262,0.86,2.664C143.51,93.417,142.642,94.264,140.442,93.819z"/>
	</g>
</g>
</svg>
